<svg width="132" height="49" viewBox="0 0 132 49" fill="none" xmlns="http://www.w3.org/2000/svg">
<rect x="0.732928" y="0.732928" width="130.181" height="47.7169" rx="7.38901" fill="white" stroke="#090909" stroke-width="0.534145"/>
<path d="M30.7171 25.3067C30.7427 23.3132 31.8091 21.427 33.5008 20.3829C32.4336 18.8527 30.646 17.8825 28.7862 17.8241C26.8026 17.6151 24.8795 19.0157 23.8687 19.0157C22.8383 19.0157 21.282 17.8449 19.6061 17.8795C17.4216 17.9503 15.3851 19.1971 14.3224 21.1144C12.0378 25.0852 13.7419 30.921 15.9303 34.1307C17.0252 35.7024 18.3049 37.4581 19.9793 37.3958C21.6177 37.3276 22.2297 36.3469 24.2075 36.3469C26.1669 36.3469 26.7411 37.3958 28.4494 37.3562C30.2076 37.3276 31.3153 35.7775 32.3718 34.1909C33.1585 33.071 33.7639 31.8333 34.1655 30.5236C32.0993 29.6463 30.7195 27.5589 30.7171 25.3067Z" fill="#090909"/>
<path d="M27.4903 15.7132C28.4489 14.558 28.9212 13.073 28.8068 11.5738C27.3422 11.7282 25.9894 12.4309 25.0178 13.5419C24.0677 14.6274 23.5733 16.0862 23.6668 17.5281C25.1319 17.5432 26.5722 16.8596 27.4903 15.7132Z" fill="#090909"/>
<path d="M89.1574 23.2478V25.6635H87.6491V27.2477H89.1574V32.6303C89.1574 34.4683 89.9856 35.2035 92.0693 35.2035C92.4355 35.2035 92.7842 35.1597 93.0894 35.1072V33.5406C92.8278 33.5668 92.6622 33.5843 92.3745 33.5843C91.4416 33.5843 91.0318 33.1467 91.0318 32.1489V27.2477H93.0894V25.6635H91.0318V23.2478H89.1574Z" fill="#090909"/>
<path d="M98.3974 35.3348C101.17 35.3348 102.87 33.4705 102.87 30.381C102.87 27.3089 101.161 25.4359 98.3974 25.4359C95.625 25.4359 93.9162 27.3089 93.9162 30.381C93.9162 33.4705 95.6163 35.3348 98.3974 35.3348ZM98.3974 33.6631C96.7671 33.6631 95.8517 32.464 95.8517 30.381C95.8517 28.3154 96.7671 27.1076 98.3974 27.1076C100.019 27.1076 100.943 28.3154 100.943 30.381C100.943 32.4553 100.019 33.6631 98.3974 33.6631Z" fill="#090909"/>
<path d="M104.324 35.151H106.199V29.5233C106.199 28.1841 107.201 27.2827 108.623 27.2827C108.954 27.2827 109.512 27.3439 109.669 27.3964V25.5409C109.468 25.4884 109.111 25.4622 108.832 25.4622C107.594 25.4622 106.539 26.1449 106.269 27.0814H106.129V25.6197H104.324V35.151Z" fill="#090909"/>
<path d="M114.323 27.0376C115.709 27.0376 116.616 28.0091 116.659 29.5057H111.864C111.969 28.0179 112.937 27.0376 114.323 27.0376ZM116.651 32.5778C116.302 33.3218 115.526 33.7331 114.393 33.7331C112.893 33.7331 111.925 32.6741 111.864 31.0024V30.8974H118.569V30.2409C118.569 27.2477 116.973 25.4359 114.332 25.4359C111.655 25.4359 109.955 27.3702 109.955 30.416C109.955 33.4618 111.62 35.3348 114.34 35.3348C116.511 35.3348 118.028 34.2845 118.455 32.5778H116.651Z" fill="#090909"/>
<path d="M76.8652 31.6312C77.0097 33.9717 78.9525 35.4685 81.8441 35.4685C84.9345 35.4685 86.8683 33.8991 86.8683 31.3954C86.8683 29.4269 85.7659 28.3383 83.0911 27.7123L81.6544 27.3586C79.9556 26.9594 79.2688 26.4242 79.2688 25.4898C79.2688 24.3105 80.3351 23.5394 81.9345 23.5394C83.4526 23.5394 84.5008 24.2924 84.6906 25.4989H86.6605C86.543 23.2945 84.6092 21.7433 81.9616 21.7433C79.1152 21.7433 77.2176 23.2945 77.2176 25.6259C77.2176 27.5491 78.2929 28.6921 80.6513 29.2454L82.3321 29.6537C84.058 30.0619 84.8171 30.6606 84.8171 31.6585C84.8171 32.8196 83.6243 33.6633 81.9977 33.6633C80.2538 33.6633 79.0429 32.874 78.8712 31.6312H76.8652Z" fill="#090909"/>
<path d="M57.448 25.4622C56.1577 25.4622 55.0417 26.1098 54.4663 27.1951H54.3268V25.6197H52.5221V38.3193H54.3966V33.7069H54.5448C55.0417 34.7134 56.1141 35.3085 57.4654 35.3085C59.8629 35.3085 61.3886 33.4093 61.3886 30.381C61.3886 27.3527 59.8629 25.4622 57.448 25.4622ZM56.9161 33.6193C55.3469 33.6193 54.3617 32.3765 54.3617 30.3897C54.3617 28.3942 55.3469 27.1514 56.9249 27.1514C58.5116 27.1514 59.4619 28.3679 59.4619 30.381C59.4619 32.4028 58.5116 33.6193 56.9161 33.6193Z" fill="#090909"/>
<path d="M67.9476 25.4622C66.6573 25.4622 65.5413 26.1098 64.9659 27.1951H64.8264V25.6197H63.0217V38.3193H64.8962V33.7069H65.0444C65.5413 34.7134 66.6137 35.3085 67.965 35.3085C70.3625 35.3085 71.8882 33.4093 71.8882 30.381C71.8882 27.3527 70.3625 25.4622 67.9476 25.4622ZM67.4158 33.6193C65.8465 33.6193 64.8613 32.3765 64.8613 30.3897C64.8613 28.3942 65.8465 27.1514 67.4245 27.1514C69.0112 27.1514 69.9615 28.3679 69.9615 30.381C69.9615 32.4028 69.0112 33.6193 67.4158 33.6193Z" fill="#090909"/>
<path d="M49.1591 35.151H51.3097L46.6018 22.0608H44.4241L39.7162 35.151H41.7945L42.9963 31.6766H47.9663L49.1591 35.151ZM45.409 24.4375H45.5626L47.4512 29.9712H43.5114L45.409 24.4375Z" fill="#090909"/>
<path d="M39.6643 12.8277V18.002H41.5252C43.0611 18.002 43.9505 17.0517 43.9505 15.3987C43.9505 13.7708 43.0539 12.8277 41.5252 12.8277H39.6643ZM40.4644 13.5592H41.4359C42.5039 13.5592 43.1361 14.2405 43.1361 15.4095C43.1361 16.5964 42.5146 17.2705 41.4359 17.2705H40.4644V13.5592Z" fill="#090909"/>
<path d="M46.6743 18.0773C47.8101 18.0773 48.5066 17.3135 48.5066 16.0477C48.5066 14.7891 47.8066 14.0218 46.6743 14.0218C45.5385 14.0218 44.8384 14.7891 44.8384 16.0477C44.8384 17.3135 45.5349 18.0773 46.6743 18.0773ZM46.6743 17.3924C46.0064 17.3924 45.6314 16.9011 45.6314 16.0477C45.6314 15.2015 46.0064 14.7067 46.6743 14.7067C47.3387 14.7067 47.7173 15.2015 47.7173 16.0477C47.7173 16.8976 47.3387 17.3924 46.6743 17.3924Z" fill="#090909"/>
<path d="M54.438 14.0971H53.67L52.9771 17.0768H52.9164L52.1163 14.0971H51.3805L50.5804 17.0768H50.5233L49.8268 14.0971H49.0481L50.1197 18.002H50.909L51.7091 15.1262H51.7698L52.5735 18.002H53.37L54.438 14.0971Z" fill="#090909"/>
<path d="M55.3224 18.002H56.0903V15.7178C56.0903 15.1083 56.451 14.7282 57.019 14.7282C57.5869 14.7282 57.8583 15.0401 57.8583 15.6676V18.002H58.6263V15.474C58.6263 14.5453 58.1476 14.0218 57.2797 14.0218C56.6939 14.0218 56.3082 14.2835 56.1189 14.7174H56.0617V14.0971H55.3224V18.002Z" fill="#090909"/>
<path d="M59.8357 18.002H60.6036V12.5732H59.8357V18.002Z" fill="#090909"/>
<path d="M63.4918 18.0773C64.6276 18.0773 65.3241 17.3135 65.3241 16.0477C65.3241 14.7891 64.624 14.0218 63.4918 14.0218C62.3559 14.0218 61.6559 14.7891 61.6559 16.0477C61.6559 17.3135 62.3524 18.0773 63.4918 18.0773ZM63.4918 17.3924C62.8238 17.3924 62.4488 16.9011 62.4488 16.0477C62.4488 15.2015 62.8238 14.7067 63.4918 14.7067C64.1561 14.7067 64.5347 15.2015 64.5347 16.0477C64.5347 16.8976 64.1561 17.3924 63.4918 17.3924Z" fill="#090909"/>
<path d="M67.6122 17.4175C67.1943 17.4175 66.8907 17.2131 66.8907 16.8617C66.8907 16.5175 67.1336 16.3346 67.6693 16.2987L68.6194 16.2378V16.5641C68.6194 17.0482 68.1908 17.4175 67.6122 17.4175ZM67.4157 18.0665C67.9265 18.0665 68.3516 17.8442 68.5837 17.4533H68.6444V18.002H69.3838V15.3342C69.3838 14.5094 68.8337 14.0218 67.8586 14.0218C66.9764 14.0218 66.3478 14.4521 66.2692 15.1226H67.0121C67.0979 14.8465 67.3943 14.6887 67.8229 14.6887C68.348 14.6887 68.6194 14.9218 68.6194 15.3342V15.6712L67.5658 15.7322C66.6407 15.7896 66.1192 16.1947 66.1192 16.8976C66.1192 17.6111 66.6657 18.0665 67.4157 18.0665Z" fill="#090909"/>
<path d="M71.9898 18.0665C72.5256 18.0665 72.9792 17.8119 73.2113 17.3852H73.2721V18.002H74.0079V12.5732H73.2399V14.7174H73.1828C72.972 14.2871 72.522 14.0325 71.9898 14.0325C71.0075 14.0325 70.3753 14.8142 70.3753 16.0477C70.3753 17.2848 71.0004 18.0665 71.9898 18.0665ZM72.2077 14.7246C72.8506 14.7246 73.2542 15.2374 73.2542 16.0513C73.2542 16.8689 72.8542 17.3745 72.2077 17.3745C71.5576 17.3745 71.1683 16.876 71.1683 16.0477C71.1683 15.2266 71.5612 14.7246 72.2077 14.7246Z" fill="#090909"/>
<path d="M78.9877 18.0773C80.1235 18.0773 80.82 17.3135 80.82 16.0477C80.82 14.7891 80.1199 14.0218 78.9877 14.0218C77.8518 14.0218 77.1518 14.7891 77.1518 16.0477C77.1518 17.3135 77.8483 18.0773 78.9877 18.0773ZM78.9877 17.3924C78.3197 17.3924 77.9447 16.9011 77.9447 16.0477C77.9447 15.2015 78.3197 14.7067 78.9877 14.7067C79.652 14.7067 80.0306 15.2015 80.0306 16.0477C80.0306 16.8976 79.652 17.3924 78.9877 17.3924Z" fill="#090909"/>
<path d="M81.8365 18.002H82.6045V15.7178C82.6045 15.1083 82.9652 14.7282 83.5331 14.7282C84.101 14.7282 84.3725 15.0401 84.3725 15.6676V18.002H85.1404V15.474C85.1404 14.5453 84.6618 14.0218 83.7939 14.0218C83.2081 14.0218 82.8223 14.2835 82.633 14.7174H82.5759V14.0971H81.8365V18.002Z" fill="#090909"/>
<path d="M88.6772 13.1254V14.115H88.0593V14.764H88.6772V16.9693C88.6772 17.7223 89.0166 18.0235 89.8702 18.0235C90.0202 18.0235 90.1631 18.0055 90.2881 17.984V17.3422C90.181 17.3529 90.1131 17.3601 89.9952 17.3601C89.613 17.3601 89.4452 17.1808 89.4452 16.7721V14.764H90.2881V14.115H89.4452V13.1254H88.6772Z" fill="#090909"/>
<path d="M91.3189 18.002H92.0869V15.7214C92.0869 15.1298 92.4369 14.7318 93.0655 14.7318C93.6085 14.7318 93.8978 15.0473 93.8978 15.6712V18.002H94.6657V15.4812C94.6657 14.5525 94.1549 14.0254 93.3263 14.0254C92.7405 14.0254 92.3298 14.2871 92.1404 14.7246H92.0797V12.5732H91.3189V18.002Z" fill="#090909"/>
<path d="M97.436 14.678C98.0039 14.678 98.3754 15.076 98.3932 15.6892H96.4287C96.4716 15.0796 96.8681 14.678 97.436 14.678ZM98.3897 16.9478C98.2468 17.2525 97.9289 17.4211 97.4646 17.4211C96.8502 17.4211 96.4537 16.9872 96.4287 16.3023V16.2593H99.1755V15.9904C99.1755 14.764 98.5218 14.0218 97.4396 14.0218C96.343 14.0218 95.6465 14.8142 95.6465 16.0621C95.6465 17.3099 96.3287 18.0773 97.4431 18.0773C98.3325 18.0773 98.954 17.647 99.129 16.9478H98.3897Z" fill="#090909"/>
</svg>
