<svg width="54" height="100" viewBox="0 0 54 100" fill="none" xmlns="http://www.w3.org/2000/svg">
<path d="M46.2309 88.6226L46.2278 88.618C46.2246 88.6135 46.2212 88.6088 46.2179 88.6045C46.0943 88.4438 45.8638 88.4137 45.703 88.5372C45.5422 88.6609 45.5121 88.8914 45.6357 89.0521L46.1833 89.7643L37.8884 92.4183C42.9844 93.4351 49.3956 96.4707 54 99.3511C52.3871 94.1644 51.0825 87.1917 51.3956 82.0048L46.7269 89.3378L46.2309 88.6226Z" fill="white"/>
<path d="M40.0501 81.2101L42.7892 85.1769C42.9312 85.3819 43.2118 85.4413 43.4248 85.3069C43.6436 85.1687 43.7092 84.8795 43.5711 84.6605L43.5634 84.6483L41.0086 80.5994L40.9975 80.5819C40.9937 80.5759 40.9898 80.5699 40.9856 80.5641C40.8072 80.3058 40.4532 80.2409 40.1949 80.4193C39.9365 80.5976 39.8717 80.9518 40.0501 81.2101Z" fill="white"/>
<path d="M35.0676 72.9292L37.4667 77.1325C37.6393 77.434 38.0218 77.5476 38.3315 77.3843C38.6477 77.2173 38.769 76.8256 38.602 76.5092L38.5867 76.4802L36.3627 72.2645L36.3423 72.2258C36.339 72.2195 36.3356 72.2135 36.3321 72.2073C36.1328 71.8582 35.6881 71.7366 35.3389 71.936C34.9897 72.1353 34.8682 72.58 35.0676 72.9292Z" fill="white"/>
<path d="M34.409 67.9403C33.8165 66.4801 33.2906 64.9972 32.8815 63.4949C32.8801 63.4896 32.8773 63.4798 32.8758 63.4745C32.741 63.0226 32.2654 62.7657 31.8136 62.9004C31.3618 63.0353 31.1047 63.5108 31.2396 63.9625C31.71 65.5396 32.2943 67.0663 32.9413 68.5575C33.1136 68.9521 33.5712 69.1413 33.9721 68.978C34.3793 68.8121 34.5749 68.3475 34.409 67.9403Z" fill="white"/>
<path d="M34.2478 51.3092C34.5621 51.7595 35.1819 51.8698 35.6323 51.5557L35.6386 51.5512C36.8538 50.7033 38.2276 50.0415 39.6275 49.7062L39.639 49.7034C39.6429 49.7025 39.6467 49.7016 39.6506 49.7006C40.201 49.5589 40.5323 48.9978 40.3906 48.4473C40.249 47.897 39.6879 47.5655 39.1375 47.7073C37.4264 48.1476 35.8794 48.9321 34.4842 49.9321C34.0427 50.2485 33.936 50.8625 34.2478 51.3092Z" fill="white"/>
<path d="M43.4964 50.0449L43.506 50.0508C44.5726 50.7011 45.407 51.9249 45.8772 53.2514L45.8805 53.2604C46.085 53.8214 46.7057 54.1105 47.2667 53.906C47.8277 53.7014 48.1167 53.0807 47.9121 52.5197C47.6068 51.6806 47.1961 50.8738 46.6554 50.1321C46.1158 49.393 45.4357 48.7136 44.5864 48.2179C44.0872 47.927 43.4439 48.0873 43.1417 48.5828C42.8361 49.0847 42.9948 49.7392 43.4964 50.0449Z" fill="white"/>
<path d="M46.1762 57.3383C46.0098 57.9741 45.7333 58.5057 45.3117 58.933C44.8907 59.3667 44.3234 59.7098 43.6847 59.9654L43.6778 59.9682C43.113 60.1982 42.8415 60.8425 43.0715 61.4075C43.3016 61.9723 43.9458 62.2437 44.5107 62.0137C45.3529 61.6707 46.195 61.1812 46.8907 60.4607C47.2357 60.1032 47.5417 59.6863 47.7736 59.2444C48.0069 58.8035 48.1749 58.3439 48.2928 57.883C48.4413 57.3013 48.0924 56.7076 47.5108 56.5554C46.9269 56.4025 46.3297 56.7518 46.1768 57.3357L46.1762 57.3383Z" fill="white"/>
<path d="M34.7631 60.3476C34.1571 60.2616 33.5944 60.6809 33.5044 61.2873C33.4142 61.8959 33.8344 62.4627 34.4432 62.5529C36.0722 62.7945 37.7264 62.9426 39.4085 62.9091C40.0203 62.8967 40.5092 62.3933 40.502 61.7804C40.4949 61.1642 39.9894 60.6705 39.3733 60.6778H39.3696C37.8495 60.6956 36.3036 60.5666 34.7659 60.3479L34.7631 60.3476Z" fill="white"/>
<path d="M30.7622 59.7969C30.9046 59.8771 31.0697 59.9207 31.2447 59.9134C31.7475 59.8926 32.1383 59.4681 32.1175 58.9654L32.1174 58.9625C32.0553 57.4614 32.2347 55.9721 32.8098 54.6982L32.813 54.6916C32.8141 54.6889 32.8153 54.6862 32.8164 54.6835C33.0274 54.1974 32.8045 53.6322 32.3184 53.4212C31.8323 53.2101 31.2671 53.4332 31.0559 53.9193C30.6957 54.7491 30.473 55.6198 30.3631 56.486C30.2521 57.353 30.2433 58.2155 30.2979 59.0618C30.3098 59.2434 30.3747 59.4094 30.4762 59.5459C30.3862 59.4915 30.2869 59.4487 30.1796 59.4212C28.6644 59.0314 27.1658 58.5688 25.6976 58.0332C25.1326 57.824 24.5089 58.114 24.2997 58.679C24.0905 59.2441 24.379 59.8717 24.9441 60.0809C26.4808 60.6498 28.0424 61.1402 29.6257 61.5557L29.6315 61.5572C30.2213 61.7086 30.8222 61.3531 30.9736 60.7634C31.0634 60.4125 30.9732 60.0588 30.7622 59.7969Z" fill="white"/>
<path d="M16.1509 55.7322C17.5315 56.6175 18.9662 57.4161 20.4373 58.1358L20.4409 58.1375C20.9773 58.3974 21.6231 58.1734 21.883 57.6369C22.143 57.1005 21.9188 56.4548 21.3824 56.1948C19.9761 55.5133 18.6067 54.7594 17.2777 53.9412C16.7879 53.6401 16.1431 53.7843 15.8314 54.2703C15.516 54.7623 15.6589 55.4167 16.1509 55.7322Z" fill="white"/>
<path d="M8.56209 49.477C9.68693 50.6796 10.894 51.8024 12.1643 52.8446C12.1667 52.8467 12.1735 52.8522 12.176 52.8541C12.618 53.2061 13.2615 53.1332 13.6136 52.6912C13.9656 52.2493 13.8927 51.6057 13.4506 51.2536C12.2319 50.2829 11.0744 49.2372 9.99593 48.1172C9.62206 47.7294 9.00353 47.7111 8.60875 48.0803C8.21023 48.4532 8.18923 49.0783 8.56209 49.477Z" fill="white"/>
<path d="M2.98548 41.3522C3.69432 42.8409 4.5164 44.2784 5.45668 45.634C5.45789 45.6357 5.46225 45.6418 5.46346 45.6436C5.76863 46.0724 6.36373 46.1728 6.79255 45.8675C7.22148 45.5623 7.32179 44.9672 7.01661 44.5384C6.11674 43.2738 5.30032 41.949 4.60258 40.5613C4.38317 40.1257 3.85384 39.9417 3.41118 40.1524C2.96225 40.3662 2.77172 40.9034 2.98548 41.3522Z" fill="white"/>
<path d="M0.233146 31.9157C0.337195 32.7296 0.472658 33.54 0.639439 34.3443C0.724699 34.7459 0.809466 35.1482 0.917757 35.5447L1.23364 36.7369C1.23505 36.742 1.23747 36.7511 1.23899 36.7563C1.3689 37.203 1.83621 37.4598 2.28281 37.33C2.72941 37.2002 2.9863 36.7327 2.85649 36.2861L2.84539 36.2481L2.5195 35.1269C2.40737 34.7539 2.31817 34.3745 2.22806 33.9956C2.05138 33.2365 1.90421 32.4702 1.78672 31.699C1.72247 31.2798 1.33475 30.9843 0.911789 31.0384C0.482057 31.0932 0.178193 31.4861 0.233146 31.9157Z" fill="white"/>
<path d="M0.000300288 27.0086C9.82285e-05 27.0155 4.29153e-06 27.0261 4.29153e-06 27.033C0.00141859 27.4256 0.320936 27.7428 0.713594 27.7413C1.10635 27.7399 1.42354 27.4204 1.42213 27.0277C1.41637 25.462 1.52841 23.8935 1.75327 22.3388C1.80126 22.0041 1.57587 21.6875 1.24029 21.6273C0.897333 21.5659 0.569746 21.7941 0.508326 22.137C0.220727 23.743 0.0490921 25.3725 0.000300288 27.0086Z" fill="white"/>
<path d="M1.71225 17.4046C1.71003 17.4113 1.70719 17.4205 1.70527 17.4273C1.62133 17.7179 1.78893 18.0214 2.07955 18.1054C2.37008 18.1892 2.67363 18.0216 2.75758 17.731C3.19459 16.2169 3.73807 14.7307 4.38014 13.2858C4.4759 13.0691 4.38561 12.8122 4.17124 12.7058C3.95102 12.5965 3.68373 12.6864 3.57443 12.9068C2.85367 14.3589 2.22957 15.8623 1.71225 17.4046Z" fill="white"/>
<path d="M6.01887 8.71624C6.01584 8.72079 6.01211 8.72644 6.00928 8.73109C5.91159 8.89171 5.9624 9.10113 6.12312 9.19901C6.28374 9.2967 6.49314 9.24579 6.59092 9.08527C7.41574 7.73011 8.33117 6.42676 9.32843 5.18576C9.39985 5.09656 9.39013 4.96552 9.30386 4.88855C9.21466 4.80894 9.0778 4.81673 8.9981 4.90593C7.92589 6.10765 6.92925 7.38078 6.01887 8.71624Z" fill="white"/>
<path d="M12.4545 1.52353C12.4533 1.52444 12.452 1.52556 12.4509 1.52657C12.42 1.55475 12.4179 1.60264 12.4459 1.63355C12.474 1.66446 12.5219 1.66659 12.5528 1.63851L12.5563 1.63528L14.351 -3.69549e-06L12.4545 1.52353Z" fill="white"/>
</svg>
