<svg width="129" height="49" viewBox="0 0 129 49" fill="none" xmlns="http://www.w3.org/2000/svg">
<rect x="1.14058" y="0.732928" width="127.126" height="47.7169" rx="7.38901" fill="white" stroke="#090909" stroke-width="0.534145"/>
<g filter="url(#filter0_ii_798_1781)">
<path d="M14.0425 12.9479C13.769 13.2386 13.6073 13.6896 13.6073 14.2738V35.1436C13.6073 35.7287 13.769 36.1788 14.0425 36.4695L14.1121 36.5374L25.7576 24.8465V24.7087V24.5709L14.1121 12.879L14.0425 12.9479Z" fill="url(#paint0_linear_798_1781)"/>
<path d="M29.6386 28.7445L25.7574 24.8463V24.7085V24.5707L29.6395 20.6734L29.727 20.7234L34.3263 23.3468C35.6395 24.0961 35.6395 25.3219 34.3263 26.0721L29.727 28.6955L29.6386 28.7445Z" fill="url(#paint1_linear_798_1781)"/>
<g filter="url(#filter1_i_798_1781)">
<path d="M29.7271 28.6944L25.7566 24.7084L14.0425 36.4692C14.4749 36.9297 15.1902 36.9863 15.9958 36.5277L29.7271 28.6944Z" fill="url(#paint2_linear_798_1781)"/>
</g>
<path d="M29.7271 20.7227L15.9958 12.8903C15.1902 12.4308 14.4749 12.4883 14.0425 12.9488L25.7575 24.7096L29.7271 20.7227Z" fill="url(#paint3_linear_798_1781)"/>
</g>
<path d="M64.8473 25.8505C62.7592 25.8505 61.0573 27.4379 61.0573 29.6243C61.0573 31.7974 62.7592 33.3982 64.8473 33.3982C66.9362 33.3982 68.6381 31.7974 68.6381 29.6243C68.6372 27.4379 66.9354 25.8505 64.8473 25.8505ZM64.8473 31.9127C63.7029 31.9127 62.7166 30.9695 62.7166 29.6252C62.7166 28.2667 63.7038 27.3376 64.8473 27.3376C65.9916 27.3376 66.978 28.2667 66.978 29.6252C66.978 30.9686 65.9916 31.9127 64.8473 31.9127ZM56.5784 25.8505C54.4904 25.8505 52.7885 27.4379 52.7885 29.6243C52.7885 31.7974 54.4904 33.3982 56.5784 33.3982C58.6674 33.3982 60.3693 31.7974 60.3693 29.6243C60.3693 27.4379 58.6674 25.8505 56.5784 25.8505ZM56.5784 31.9127C55.4341 31.9127 54.4477 30.9695 54.4477 29.6252C54.4477 28.2667 55.435 27.3376 56.5784 27.3376C57.7228 27.3376 58.7091 28.2667 58.7091 29.6252C58.71 30.9686 57.7228 31.9127 56.5784 31.9127ZM46.7435 27.0093V28.6101H50.577C50.4625 29.5107 50.1624 30.1682 49.7043 30.6252C49.1468 31.1825 48.2741 31.7974 46.7435 31.7974C44.3838 31.7974 42.539 29.8958 42.539 27.5373C42.539 25.1787 44.3838 23.2772 46.7435 23.2772C48.0166 23.2772 48.9461 23.7776 49.6324 24.421L50.7625 23.2914C49.8037 22.3765 48.5315 21.6764 46.7435 21.6764C43.5111 21.6764 40.7936 24.3065 40.7936 27.5373C40.7936 30.7681 43.5111 33.3982 46.7435 33.3982C48.488 33.3982 49.8046 32.8258 50.8336 31.7539C51.8918 30.6962 52.2212 29.209 52.2212 28.0085C52.2212 27.6376 52.1928 27.2942 52.1351 27.0084L46.7435 27.0093ZM86.9674 28.2525C86.6531 27.4095 85.6943 25.8505 83.735 25.8505C81.7898 25.8505 80.1731 27.3802 80.1731 29.6243C80.1731 31.7397 81.7756 33.3982 83.9205 33.3982C85.6508 33.3982 86.6522 32.3404 87.0677 31.7255L85.7804 30.8675C85.3516 31.4966 84.7648 31.911 83.9205 31.911C83.0771 31.911 82.4761 31.525 82.0899 30.7672L87.1387 28.6802L86.9674 28.2525ZM81.8182 29.5107C81.7756 28.0519 82.9484 27.3092 83.7927 27.3092C84.4505 27.3092 85.008 27.6384 85.1945 28.1096L81.8182 29.5107ZM77.714 33.1701H79.3724V22.0775H77.714V33.1701ZM74.9956 26.6943H74.9388C74.5668 26.2506 73.8512 25.8505 72.951 25.8505C71.0627 25.8505 69.3324 27.5089 69.3324 29.6394C69.3324 31.7548 71.0627 33.399 72.951 33.399C73.8521 33.399 74.5668 32.9988 74.9388 32.5419H74.9956V33.0849C74.9956 34.5286 74.2232 35.3006 72.9794 35.3006C71.9638 35.3006 71.3343 34.5721 71.0769 33.9572L69.6325 34.5579C70.047 35.5579 71.1479 36.7878 72.9794 36.7878C74.9245 36.7878 76.5696 35.644 76.5696 32.856V26.0803H74.9965L74.9956 26.6943ZM73.0939 31.9127C71.9496 31.9127 70.9917 30.9544 70.9917 29.6394C70.9917 28.3093 71.9496 27.3376 73.0939 27.3376C74.2232 27.3376 75.1101 28.3093 75.1101 29.6394C75.1101 30.9544 74.2232 31.9127 73.0939 31.9127ZM94.7391 22.0775H90.7698V33.1701H92.4255V28.9677H94.7382C96.5741 28.9677 98.3799 27.6393 98.3799 25.523C98.3799 23.4067 96.575 22.0775 94.7391 22.0775ZM94.7817 27.4237H92.4255V23.6215H94.7817C96.0201 23.6215 96.7233 24.6463 96.7233 25.523C96.7233 26.382 96.0201 27.4237 94.7817 27.4237ZM105.02 25.8309C103.82 25.8309 102.578 26.3589 102.064 27.5293L103.534 28.1425C103.849 27.5293 104.435 27.3288 105.048 27.3288C105.905 27.3288 106.776 27.8425 106.79 28.7556V28.8701C106.49 28.6988 105.847 28.4424 105.062 28.4424C103.478 28.4424 101.864 29.3128 101.864 30.9393C101.864 32.4239 103.163 33.3795 104.619 33.3795C105.733 33.3795 106.347 32.8799 106.732 32.2943H106.789V33.1506H108.389V28.8976C108.39 26.9295 106.918 25.8309 105.02 25.8309ZM104.819 31.9101C104.277 31.9101 103.52 31.6386 103.52 30.9677C103.52 30.1115 104.463 29.7831 105.277 29.7831C106.004 29.7831 106.348 29.9402 106.79 30.154C106.661 31.1825 105.776 31.9101 104.819 31.9101ZM114.214 26.0732L112.315 30.8826H112.259L110.288 26.0732H108.503L111.459 32.7948L109.774 36.534H111.501L116.057 26.0732H114.214ZM99.2943 33.1701H100.95V22.0775H99.2943V33.1701Z" fill="#090909"/>
<path d="M46.5368 15.5163C46.5368 16.2464 46.3168 16.8275 45.876 17.2614C45.3757 17.7772 44.7229 18.0351 43.9211 18.0351C43.1529 18.0351 42.4992 17.7737 41.9626 17.2509C41.4251 16.7273 41.1563 16.0791 41.1563 15.3054C41.1563 14.5309 41.4251 13.8826 41.9626 13.3599C42.4992 12.8363 43.1529 12.5749 43.9211 12.5749C44.3025 12.5749 44.667 12.6481 45.013 12.7936C45.3598 12.9399 45.6374 13.1342 45.8449 13.3773L45.3775 13.8373C45.0254 13.4235 44.5402 13.217 43.9202 13.217C43.3596 13.217 42.8753 13.4104 42.4664 13.7973C42.0575 14.1841 41.8535 14.6868 41.8535 15.3045C41.8535 15.9223 42.0575 16.425 42.4664 16.8118C42.8753 17.1987 43.3596 17.3921 43.9202 17.3921C44.5145 17.3921 45.0103 17.1978 45.4068 16.8083C45.664 16.5548 45.813 16.2019 45.8529 15.7498H43.9202V15.1216H46.4987C46.5253 15.2584 46.5368 15.3899 46.5368 15.5163Z" fill="#090909"/>
<path d="M50.6259 13.3329H48.2027V14.9901H50.3882V15.6182H48.2027V17.2754H50.6259V17.9184H47.5188V12.6908H50.6259V13.3329Z" fill="#090909"/>
<path d="M53.5094 17.9184H52.8256V13.3329H51.339V12.6908H54.996V13.3329H53.5094V17.9184Z" fill="#090909"/>
<path d="M57.6419 17.9184V12.6908H58.3258V17.9184H57.6419Z" fill="#090909"/>
<path d="M61.3585 17.9184H60.6747V13.3329H59.1881V12.6908H62.8451V13.3329H61.3585V17.9184Z" fill="#090909"/>
<path d="M69.7679 17.2431C69.2446 17.7711 68.5944 18.0351 67.8165 18.0351C67.0386 18.0351 66.3885 17.7711 65.866 17.2431C65.3427 16.7152 65.0819 16.0687 65.0819 15.3046C65.0819 14.5405 65.3427 13.894 65.866 13.366C66.3885 12.838 67.0386 12.5732 67.8165 12.5732C68.59 12.5732 69.2393 12.8389 69.7644 13.3695C70.2895 13.9001 70.552 14.5448 70.552 15.3046C70.552 16.0687 70.2903 16.7152 69.7679 17.2431ZM66.3707 16.8049C66.7645 17.197 67.2462 17.3921 67.8165 17.3921C68.3869 17.3921 68.8694 17.1961 69.2623 16.8049C69.6561 16.4128 69.8539 15.9127 69.8539 15.3046C69.8539 14.6964 69.6561 14.1963 69.2623 13.8043C68.8694 13.4122 68.3869 13.217 67.8165 13.217C67.2462 13.217 66.7645 13.4131 66.3707 13.8043C65.9778 14.1963 65.78 14.6964 65.78 15.3046C65.78 15.9127 65.9778 16.4128 66.3707 16.8049Z" fill="#090909"/>
<path d="M71.5117 17.9184V12.6908H72.3437L74.9302 16.757H74.9595L74.9302 15.7498V12.6908H75.6141V17.9184H74.9001L72.1938 13.6544H72.1646L72.1938 14.6616V17.9184H71.5117Z" fill="#090909"/>
<path d="M46.5368 15.5163C46.5368 16.2464 46.3168 16.8275 45.876 17.2614C45.3757 17.7772 44.7229 18.0351 43.9211 18.0351C43.1529 18.0351 42.4992 17.7737 41.9626 17.2509C41.4251 16.7273 41.1563 16.0791 41.1563 15.3054C41.1563 14.5309 41.4251 13.8826 41.9626 13.3599C42.4992 12.8363 43.1529 12.5749 43.9211 12.5749C44.3025 12.5749 44.667 12.6481 45.013 12.7936C45.3598 12.9399 45.6374 13.1342 45.8449 13.3773L45.3775 13.8373C45.0254 13.4235 44.5402 13.217 43.9202 13.217C43.3596 13.217 42.8753 13.4104 42.4664 13.7973C42.0575 14.1841 41.8535 14.6868 41.8535 15.3045C41.8535 15.9223 42.0575 16.425 42.4664 16.8118C42.8753 17.1987 43.3596 17.3921 43.9202 17.3921C44.5145 17.3921 45.0103 17.1978 45.4068 16.8083C45.664 16.5548 45.813 16.2019 45.8529 15.7498H43.9202V15.1216H46.4987C46.5253 15.2584 46.5368 15.3899 46.5368 15.5163Z" stroke="white" stroke-width="0.0364129" stroke-miterlimit="10"/>
<path d="M50.6259 13.3329H48.2027V14.9901H50.3882V15.6182H48.2027V17.2754H50.6259V17.9184H47.5188V12.6908H50.6259V13.3329Z" stroke="white" stroke-width="0.0364129" stroke-miterlimit="10"/>
<path d="M53.5094 17.9184H52.8256V13.3329H51.339V12.6908H54.996V13.3329H53.5094V17.9184Z" stroke="white" stroke-width="0.0364129" stroke-miterlimit="10"/>
<path d="M57.6419 17.9184V12.6908H58.3258V17.9184H57.6419Z" stroke="white" stroke-width="0.0364129" stroke-miterlimit="10"/>
<path d="M61.3585 17.9184H60.6747V13.3329H59.1881V12.6908H62.8451V13.3329H61.3585V17.9184Z" stroke="white" stroke-width="0.0364129" stroke-miterlimit="10"/>
<path d="M69.7679 17.2431C69.2446 17.7711 68.5944 18.0351 67.8165 18.0351C67.0386 18.0351 66.3885 17.7711 65.866 17.2431C65.3427 16.7152 65.0819 16.0687 65.0819 15.3046C65.0819 14.5405 65.3427 13.894 65.866 13.366C66.3885 12.838 67.0386 12.5732 67.8165 12.5732C68.59 12.5732 69.2393 12.8389 69.7644 13.3695C70.2895 13.9001 70.552 14.5448 70.552 15.3046C70.552 16.0687 70.2903 16.7152 69.7679 17.2431ZM66.3707 16.8049C66.7645 17.197 67.2462 17.3921 67.8165 17.3921C68.3869 17.3921 68.8694 17.1961 69.2623 16.8049C69.6561 16.4128 69.8539 15.9127 69.8539 15.3046C69.8539 14.6964 69.6561 14.1963 69.2623 13.8043C68.8694 13.4122 68.3869 13.217 67.8165 13.217C67.2462 13.217 66.7645 13.4131 66.3707 13.8043C65.9778 14.1963 65.78 14.6964 65.78 15.3046C65.78 15.9127 65.9778 16.4128 66.3707 16.8049Z" stroke="white" stroke-width="0.0364129" stroke-miterlimit="10"/>
<path d="M71.5117 17.9184V12.6908H72.3437L74.9302 16.757H74.9595L74.9302 15.7498V12.6908H75.6141V17.9184H74.9001L72.1938 13.6544H72.1646L72.1938 14.6616V17.9184H71.5117Z" stroke="white" stroke-width="0.0364129" stroke-miterlimit="10"/>
<defs>
<filter id="filter0_ii_798_1781" x="13.6073" y="12.5732" width="21.7039" height="24.2713" filterUnits="userSpaceOnUse" color-interpolation-filters="sRGB">
<feFlood flood-opacity="0" result="BackgroundImageFix"/>
<feBlend mode="normal" in="SourceGraphic" in2="BackgroundImageFix" result="shape"/>
<feColorMatrix in="SourceAlpha" type="matrix" values="0 0 0 0 0 0 0 0 0 0 0 0 0 0 0 0 0 0 127 0" result="hardAlpha"/>
<feOffset dy="-0.141548"/>
<feComposite in2="hardAlpha" operator="arithmetic" k2="-1" k3="1"/>
<feColorMatrix type="matrix" values="0 0 0 0 0 0 0 0 0 0 0 0 0 0 0 0 0 0 0.12 0"/>
<feBlend mode="normal" in2="shape" result="effect1_innerShadow_798_1781"/>
<feColorMatrix in="SourceAlpha" type="matrix" values="0 0 0 0 0 0 0 0 0 0 0 0 0 0 0 0 0 0 127 0" result="hardAlpha"/>
<feOffset dy="0.141548"/>
<feComposite in2="hardAlpha" operator="arithmetic" k2="-1" k3="1"/>
<feColorMatrix type="matrix" values="0 0 0 0 1 0 0 0 0 1 0 0 0 0 1 0 0 0 0.25 0"/>
<feBlend mode="normal" in2="effect1_innerShadow_798_1781" result="effect2_innerShadow_798_1781"/>
</filter>
<filter id="filter1_i_798_1781" x="14.0425" y="24.7084" width="15.6846" height="12.136" filterUnits="userSpaceOnUse" color-interpolation-filters="sRGB">
<feFlood flood-opacity="0" result="BackgroundImageFix"/>
<feBlend mode="normal" in="SourceGraphic" in2="BackgroundImageFix" result="shape"/>
<feColorMatrix in="SourceAlpha" type="matrix" values="0 0 0 0 0 0 0 0 0 0 0 0 0 0 0 0 0 0 127 0" result="hardAlpha"/>
<feOffset dy="-0.141548"/>
<feComposite in2="hardAlpha" operator="arithmetic" k2="-1" k3="1"/>
<feColorMatrix type="matrix" values="0 0 0 0 0 0 0 0 0 0 0 0 0 0 0 0 0 0 0.08 0"/>
<feBlend mode="normal" in2="shape" result="effect1_innerShadow_798_1781"/>
</filter>
<linearGradient id="paint0_linear_798_1781" x1="24.7253" y1="14.0529" x2="8.88897" y2="29.8277" gradientUnits="userSpaceOnUse">
<stop stop-color="#00A0FF"/>
<stop offset="0.0066" stop-color="#00A1FF"/>
<stop offset="0.2601" stop-color="#00BEFF"/>
<stop offset="0.5122" stop-color="#00D2FF"/>
<stop offset="0.7604" stop-color="#00DFFF"/>
<stop offset="1" stop-color="#00E3FF"/>
</linearGradient>
<linearGradient id="paint1_linear_798_1781" x1="36.0357" y1="24.7085" x2="13.2918" y2="24.7085" gradientUnits="userSpaceOnUse">
<stop stop-color="#FFE000"/>
<stop offset="0.4087" stop-color="#FFBD00"/>
<stop offset="0.7754" stop-color="#FFA500"/>
<stop offset="1" stop-color="#FF9C00"/>
</linearGradient>
<linearGradient id="paint2_linear_798_1781" x1="27.5709" y1="26.8731" x2="6.09484" y2="48.2656" gradientUnits="userSpaceOnUse">
<stop stop-color="#FF3A44"/>
<stop offset="1" stop-color="#C31162"/>
</linearGradient>
<linearGradient id="paint3_linear_798_1781" x1="11.0922" y1="6.00144" x2="20.6819" y2="15.5538" gradientUnits="userSpaceOnUse">
<stop stop-color="#32A071"/>
<stop offset="0.0685" stop-color="#2DA771"/>
<stop offset="0.4762" stop-color="#15CF74"/>
<stop offset="0.8009" stop-color="#06E775"/>
<stop offset="1" stop-color="#00F076"/>
</linearGradient>
</defs>
</svg>
